# xmcd
#
# Track frame offsets: 
#        150
#        13656
#        23628
#        34168
#        44324
#        56937
#        68607
#        79031
#        90184
#        102773
#        114443
#        127056
#        137541
#        150130
#        160838
#        174428
#        185505
#        197820
#        209003
#        221242
#        230912
#        244557
#        254174
#        267819
#        277710
#        288840
#        300185
#
# Disc length: 4146 seconds
#
# Revision: 1
# Processed by: cddbd v1.5.2PL0 Copyright (c) Steve Scherf et al.
# Submitted via: ExactAudioCopyFreeDBPlugin 1.0
#
DISCID=6f10301b
DTITLE=Ray Price - The Honky Tonk Years (1950-1966) - CD02
DYEAR=2002
DGENRE=Country
TTITLE0=The Price For Loving You
TTITLE1=That's What I Get For Loving You
TTITLE2=Cold Shoulder
TTITLE3=You Weren't Ashamed To Kiss Me Last Night
TTITLE4=The Wrong Side Of Town
TTITLE5=Time
TTITLE6=Start The Music
TTITLE7=Gone Again
TTITLE8=The Way You've Treated Me
TTITLE9=Time
TTITLE10=The Wrong Side Of Town
TTITLE11=Who Stole That Train
TTITLE12=Let Your Heart Decide
TTITLE13=You Always Get By
TTITLE14=Leave Her Alone
TTITLE15=The Wall Around Your Heart
TTITLE16=Release Me
TTITLE17=I'll Be There (If You Ever Want Me)
TTITLE18=The Last Letter
TTITLE19=Much To Young To Die
TTITLE20=I Love You So Much, I Let You Go
TTITLE21=I Could Love You More
TTITLE22=What If He Don't Love You
TTITLE23=If You Don't, Somebody Else Will
TTITLE24=I'm Alone Because I Love You
TTITLE25=Oh Yes, Darling
TTITLE26=One Broken Heart (Don't Mean A Thing)
EXTD=
EXTT0=
EXTT1=
EXTT2=
EXTT3=
EXTT4=
EXTT5=
EXTT6=
EXTT7=
EXTT8=
EXTT9=
EXTT10=
EXTT11=
EXTT12=
EXTT13=
EXTT14=
EXTT15=
EXTT16=
EXTT17=
EXTT18=
EXTT19=
EXTT20=
EXTT21=
EXTT22=
EXTT23=
EXTT24=
EXTT25=
EXTT26=
PLAYORDER=
